<?xml version="1.0" encoding="utf-8"?>
<svg version="1.1" id="Layer_1" xmlns="http://www.w3.org/2000/svg" xmlns:xlink="http://www.w3.org/1999/xlink" x="0px" y="0px"
	 viewBox="0 0 90 90" style="enable-background:new 0 0 90 90;" xml:space="preserve">
<style type="text/css">
	.st0{fill:none;stroke:#000000;stroke-width:2;stroke-linecap:round;stroke-miterlimit:10;}
	.st1{fill:none;stroke:#000000;stroke-width:3;stroke-linecap:round;stroke-miterlimit:10;}
	.st2{fill:none;stroke:#000000;stroke-width:3;stroke-miterlimit:10;}
	.st3{opacity:0.66;fill:#C7C9C9;enable-background:new    ;}
</style>
<g id="Layer_1_1_">
	<title>Artboard 2 Copy 3</title>
	<desc>Created with Sketch.</desc>
	<g>
		<g>
			<path d="M8,61.6c-0.6,0-1-0.5-1-1c0-0.6,0.5-1,1-1h73c0.6,0,1,0.5,1,1c0,0.6-0.5,1-1,1H8z M8,72c-0.6,0-1-0.5-1-1s0.5-1,1-1h35.2
				c0.6,0,1,0.5,1,1s-0.5,1-1,1H8z M8,51.2c-0.6,0-1-0.5-1-1s0.5-1,1-1h73c0.6,0,1,0.5,1,1s-0.5,1-1,1H8z M8,40.9c-0.6,0-1-0.5-1-1
				s0.5-1,1-1h73c0.6,0,1,0.5,1,1s-0.5,1-1,1H8z M8,30.5c-0.6,0-1-0.5-1-1s0.5-1,1-1h73c0.6,0,1,0.5,1,1s-0.5,1-1,1H8z M8,20.1
				c-0.6,0-1-0.5-1-1c0-0.6,0.5-1,1-1h73c0.6,0,1,0.5,1,1c0,0.6-0.5,1-1,1H8z"/>
		</g>
	</g>
</g>
<g id="Layer_5">
	<path class="st0" d="M30.3,42.2c-3.4,3-3.8,8.2-0.8,11.6s8.2,3.8,11.6,0.8"/>
</g>
<g id="Layer_3">
	<line class="st1" x1="45" y1="57.1" x2="61.6" y2="73.7"/>
	<path d="M60.5,75.5L48.6,63.6c-0.6-0.6-0.6-1.7,0-2.3l0.6-0.6c0.6-0.6,1.7-0.6,2.3,0l11.9,11.9c0.6,0.6,0.6,1.7,0,2.3l-0.6,0.6
		C62.2,76.2,61.2,76.2,60.5,75.5z"/>
</g>
<g id="Layer_2">
	<circle class="st2" cx="36.2" cy="48.2" r="12.1"/>
</g>
<g id="Layer_4">
	<circle class="st3" cx="36.2" cy="48.2" r="12.1"/>
</g>
</svg>
